# xmcd
#
# Track frame offsets:
#	150
#	19303
#	46135
#	65465
#	86035
#	109579
#	126345
#	146323
#	159585
#	172510
#
# Disc length: 2600 seconds
#
# Revision: 0
# Processed by: cddbd v1.5.1PL0 Copyright (c) Steve Scherf et al.
# Submitted via: dBpowerAMP V4.0
#
DISCID=790a260a
DTITLE=James Peterson - Wrong Bed
DYEAR=1998
DGENRE=Blues
TTITLE0=Wrong Bed
TTITLE1=Ends Meet
TTITLE2=Four Little Boys
TTITLE3=Blood Runs Cold
TTITLE4=Keep On Pumpin'
TTITLE5=You Gotta Pay
TTITLE6=Right Place, Wrong Time
TTITLE7=Memphis Smoke
TTITLE8=Fishin'
TTITLE9=Cryin' Time
EXTD=
EXTT0=
EXTT1=
EXTT2=
EXTT3=
EXTT4=
EXTT5=
EXTT6=
EXTT7=
EXTT8=
EXTT9=
PLAYORDER=
